<svg fill="none" height="1378" width="2500" xmlns="http://www.w3.org/2000/svg" viewBox="0.94 0 252.09 139.119"><path d="M253 70.54l-1.23-.7c-2-1.18-4.05-2.31-6-3.53-3.32-2-6.73-3.95-9.93-6.2a2.552 2.552 0 0 0-3-.16 72.131 72.131 0 0 1-7.66 3.56 2.902 2.902 0 0 1-2.35.05 10.82 10.82 0 0 1-4.14-2.79c-.73-.8-1.42-1.64-2.12-2.47a.91.91 0 0 0-1.15-.32c-.3.12-.61.23-.91.36L207 61.63c-.45.2-.93.32-1.35.56a1.76 1.76 0 0 1-1.82 0c-1.56-.76-3.19-1.36-4.76-2.09a2.099 2.099 0 0 0-1.86 0c-2 .87-4 1.7-6 2.53-1.04.443-2.043.968-3 1.57-1.15.71-2.34 1.37-3.53 2a6.791 6.791 0 0 1-2.79.82c-1.07.08-1.34-.11-1.71-1.09-.11-.3-.19-.62-.3-.93a79.008 79.008 0 0 0-3.35-9c-.57-1.17-1.13-2.34-1.78-3.47a29.8 29.8 0 0 0-2.18-3.43 1.894 1.894 0 0 0-1.84-.76 4.749 4.749 0 0 0-1.84.61c-1.2.638-2.516 1.029-3.87 1.15-1.26.12-1.26.15-1.61-1 0-.16-.08-.32-.11-.48-.52-2.44-1.09-4.86-1.56-7.31a34.422 34.422 0 0 0-1.32-5.53c-.56-1.53-1.11-3.07-2.53-4.08a22.257 22.257 0 0 0-3.52-2 1 1 0 0 0-1.29.25c-3.93 3.82-7.68 7.8-11.38 11.84-.677.719-1.249 1.53-1.7 2.41a21.915 21.915 0 0 1-4.11 5.82c-1.92 1.91-3.71 3.95-5.61 5.89-1.4 1.43-2.86 2.81-4.33 4.18-.571.498-1.18.953-1.82 1.36a1.71 1.71 0 0 1-2 0c-.93-.55-1.91-1-2.89-1.5-.63-.31-1.29-.56-1.95-.82a.74.74 0 0 0-.76.11 3.732 3.732 0 0 0-.36.33c-1.59 1.63-3.49 2.93-5 4.7-.37.45-.54.44-1.14.19l-.59-.27c-3.113-1.534-6.223-3.07-9.33-4.61a8.299 8.299 0 0 1-3.78-3.45 32.248 32.248 0 0 0-3.21-4.49 5.885 5.885 0 0 0-1.06-1 1.67 1.67 0 0 0-2.48-.07 25.998 25.998 0 0 0-5.86 5.6c-.365.46-.7.944-1 1.45-.88 1.49-1.73 3-2.59 4.51-.56 1-1.1 2-1.66 3a4.339 4.339 0 0 1-1.3 1.43 2.06 2.06 0 0 1-2.81-.06c-.48-.36-.94-.74-1.39-1.13-1.1-1-2.19-1.94-3.29-2.91a50.988 50.988 0 0 1-5.19-4.9 1.69 1.69 0 0 0-2.58-.12 6.562 6.562 0 0 0-.69.69c-1 1.14-2 2.26-3 3.45-1.72 2.17-3.37 4.39-5.06 6.57a3.41 3.41 0 0 1-3.6 1.33 10.763 10.763 0 0 1-3.42-1.47 36.806 36.806 0 0 0-4.21-2.12c-2.84-1.23-5.67-2.47-8.38-3.95a13.217 13.217 0 0 1-2.91-2.05 41 41 0 0 1-3.94-4.53c-.83-1.07-1.58-2.2-2.44-3.25-.61-.75-1.09-.77-1.79-.11-.91.85-1.8 1.73-2.62 2.66a46.157 46.157 0 0 0-3.59 4.2c-.71 1-1.43 2-2.19 3a35.65 35.65 0 0 1-2.81 3.37A6.7 6.7 0 0 1 9 66.8c-2.06.83-4.12 1.67-6.21 2.42l-1.85.66v69.239H253z" fill="#030303"/><path d="M236.16 88.42a3.21 3.21 0 1 1 .94-2.28 3.09 3.09 0 0 1-.94 2.28zm-4.22-4.23a2.674 2.674 0 0 0-.8 2 2.695 2.695 0 0 0 .8 2 2.752 2.752 0 0 0 1.955.81 2.757 2.757 0 0 0 2.759-2.77c0-.735-.289-1.439-.804-1.96a2.75 2.75 0 0 0-3.91 0zm1.89.18c.339-.021.678.023 1 .13a.869.869 0 0 1 .55.89.77.77 0 0 1-.35.7c-.157.09-.33.147-.51.17a.856.856 0 0 1 .61.35 1 1 0 0 1 .19.55v.52c-.01.059-.01.12 0 .18h-.58v-.47a.865.865 0 0 0-.33-.81 1.492 1.492 0 0 0-.69-.11h-.49v1.39h-.62v-3.52zm.67.56a1.61 1.61 0 0 0-.75-.13h-.53v1.28h.56c.2.008.4-.02.59-.08a.643.643 0 0 0 .317-.815.64.64 0 0 0-.187-.256z" fill="#fff"/><path clip-rule="evenodd" d="M63.19 99.61h-1.3a4.08 4.08 0 0 0-4.19 4.06c0 1.89.58 4.06 3 4.06 2.17 0 2.6-1.74 2.6-3.48V99.9s.14-.29-.14-.29zm65.88 21.18h-4.55c-3.27-.39-6.1-1.64-6.1-4.64 0-2.18 2.46-3.77 4.48-4.06 0 0 .58-.15 0-.15a26.025 26.025 0 0 0-5.93-.15.508.508 0 0 1-.43-.29c-.14-.29-.87-2.32-1-2.47a.314.314 0 0 1-.037-.122.308.308 0 0 1 .076-.24.322.322 0 0 1 .101-.078 28.145 28.145 0 0 0 6.65-2.32c.72-.15 0-.29 0-.29-4-.73-8.1-3.48-8.1-8.27 0-6.82 5.64-9.87 11-9.87 1.746.054 3.485.248 5.2.58 0 0 .14.15.29-.15a7.77 7.77 0 0 1 .43-1.6c.58-1.74 1.45-2.47 4-2.47.534-.03 1.07.021 1.59.15 0 0 .29-.15.29.29a36.594 36.594 0 0 0-1 3.77c-.14.44-.29.15-.29.15-.43-.29-.58-.44-1.59-.29-.58 0-.87.44-.87 1 0 1 4.63 2.47 4.63 8 0 7.4-6.79 9-12.72 10.45 0 0-.58.15 0 .15 3.9.44 12 1.45 12 6.53 0 4.28-4.75 5.93-8.14 6.38zM72.44 109h1.16a.282.282 0 0 1 .29.29v2.32c0 .44-.43.29-.43.29H64.2s-.14 0-.14-.29a9.01 9.01 0 0 1-.43-1.6c-.14-.58-.43 0-.43 0a10.845 10.845 0 0 1-6.65 2.61c-4.34 0-7.66-2.76-7.66-7.26 0-5.51 3.47-8.56 7.81-8.56l6.65-.29v-1c0-1.89-1-2.76-3.18-2.76a6.07 6.07 0 0 0-5.35 2.61s0 .15-.29.15-2.6-1-2.6-1-.29 0-.14-.29 3-7.26 3-7.26 0-.29.14-.15c.846.31 1.716.554 2.6.73a.32.32 0 0 1 .14.44l-.29.58c-.14.58.14.29.14.29a15.45 15.45 0 0 1 5.64-1c5.49 0 9.11 2.32 9.11 8v12.75s0 .44.14.44zM73 89.6a12.928 12.928 0 0 0 8.53-7s0-.15.29-.15 2.17.44 2.46.44.14.29.14.29a30.807 30.807 0 0 0-.29 3.48v1.74c0 .29.29.15.29.15h3.9c.29 0 .14.29.14.29s-.58 2.9-.58 3.19-.29.29-.29.29h-3.18c-.29 0-.29.15-.29.15V106a1.819 1.819 0 0 0 2 1.89c.502.06 1.01-.041 1.45-.29 0 0 .29-.29.29 0s.87 2.18 1 2.47-.14.29-.14.29c-3 2.18-3.33 2.32-7.37 2.32-4.48 0-6.07-2.18-6.07-6.24V92.5s0-.15-.29-.15h-2s-.14 0-.14-.29v-2.18a.51.51 0 0 1 .14-.29zm65.93 10.59c0-7.55 5.93-12.33 13.73-12.33s13.88 4.79 13.88 12.33c0 7.84-6.07 12.48-13.88 12.48s-13.73-4.64-13.73-12.48zm9-3.34c0 3.48 1.45 12.19 6.36 12.19 2.6 0 3.33-2.76 3.33-5.37 0-3.48-1.45-12.19-6.51-12.19-3.18 0-3.18 3.63-3.18 5.37zM194 111.94h-12.11a.138.138 0 0 1-.056-.012.127.127 0 0 1-.047-.032.144.144 0 0 1-.037-.106v-2.47a.27.27 0 0 1 .006-.113.298.298 0 0 1 .05-.101.301.301 0 0 1 .086-.073A.289.289 0 0 1 182 109h1.45a.14.14 0 0 0 .14-.14v-13.2c0-1.45-1.3-2-2.6-2a5.72 5.72 0 0 0-3.9 1.74.508.508 0 0 0-.14.29v13.2a.14.14 0 0 0 .14.14h1.59s.14 0 .14.29v2.47a.144.144 0 0 1-.037.106.127.127 0 0 1-.047.032.138.138 0 0 1-.056.012h-12.12s-.14.15-.14-.29v-2.32c0-.29.14-.29.14-.29h1.3c.29 0 .14-.14.14-.14V93.37s.14-.29-.14-.29l-1.3.44s-.14.14-.14-.15V90.9c0-.29.14-.15.14-.15L176.83 88s.29-.14.29.15v3.34c0 .44.14.15.14.15 2.46-1.89 4.92-3.77 8.24-3.77 6.22 0 7.08 4.21 7.08 6.82v14.22s-.14.14.14.14H194s.14 0 .14.29v2.32c0 .44-.14.29-.14.29zM206.32 88l-10.26 2.76s-.14 0-.14.29v2.32c0 .29.29.15.29.15s.72-.15 1.3-.29c.29 0 .14.29.14.44v15.24s.14.14-.14.14h-1.45a.292.292 0 0 0-.113.019.287.287 0 0 0-.158.158.292.292 0 0 0-.019.113v2.47c0 .29.29.15.29.15h12c.29 0 .14-.29.14-.29v-2.32a.292.292 0 0 0-.019-.113.287.287 0 0 0-.158-.158.292.292 0 0 0-.113-.019h-1.16c-.29 0-.14-.14-.14-.14V88.15c0-.29-.29-.15-.29-.15zm-3.61-7.25c2 0 4.34.58 4.34 3 0 2.9-3.9 4.06-6.36 4.06-2 0-3.33-1-3.33-3 0-2.32 3.18-4.06 5.35-4.06zm-99.32 18.86h-1.16a3.997 3.997 0 0 0-3.886 2.465 4.005 4.005 0 0 0-.304 1.595c0 1.89.58 4.06 2.89 4.06s2.75-1.74 2.75-3.48V99.9a.281.281 0 0 0-.29-.29zm9.4 9.43h1c.43 0 .43.29.43.29v2.32c0 .44-.43.29-.43.29h-9.25s-.14 0-.29-.29a7.499 7.499 0 0 1-.29-1.6c-.14-.58-.43 0-.43 0-2 1.45-4 2.61-6.65 2.61-4.48 0-7.81-2.76-7.81-7.26 0-5.51 3.61-8.71 8-8.71l6.51-.15s.14 0 .14-.29v-.73c0-1.89-1-2.76-3.18-2.76a6.07 6.07 0 0 0-5.35 2.61.2.2 0 0 1-.29 0c-.29 0-2.75-.87-2.75-.87s-.14 0 0-.29S95 87 95 87s0-.29.29-.15c.799.31 1.621.554 2.46.73a.319.319 0 0 1 .14.44 1.45 1.45 0 0 1-.14.58c-.29.58.14.29.14.29a15.451 15.451 0 0 1 5.64-1c5.49 0 9.11 2.32 9.11 8v12.71s-.14.44.14.44zm9.54-14.95c0 2.61 1.45 9.72 5.06 9.72 1.88 0 2.6-.87 2.6-3.19 0-2.61-1.59-9.72-5.2-9.72-1.73 0-2.46.87-2.46 3.19zm3.76 19a5.914 5.914 0 0 0-.72 3c0 1.16.58 2.47 2 2.47a1.641 1.641 0 0 0 1.88-1.74c0-2.18-1.3-2.9-2.89-3.92a.447.447 0 0 0-.29.15zm96.43-13.49h-1.16a3.998 3.998 0 0 0-4.19 4.06c0 1.89.58 4.06 2.89 4.06s2.75-1.74 2.75-3.48V99.9a.281.281 0 0 0-.29-.29zm9.4 9.43h1.16a.292.292 0 0 1 .113.019.287.287 0 0 1 .158.158c.014.036.02.075.019.113v2.32c0 .44-.43.29-.43.29h-9.25s-.14 0-.29-.29a7.561 7.561 0 0 1-.29-1.6c-.14-.58-.43 0-.43 0-2 1.45-4 2.61-6.65 2.61-4.48 0-7.81-2.76-7.81-7.26 0-5.51 3.61-8.71 8-8.71l6.51-.15s.14 0 .14-.29v-.73c0-1.89-1-2.76-3.18-2.76a6.069 6.069 0 0 0-5.35 2.61.202.202 0 0 1-.224.046.202.202 0 0 1-.066-.046 27.162 27.162 0 0 1-2.6-.87s-.29 0-.14-.29 2.89-7.26 2.89-7.26 0-.29.29-.15c.799.31 1.622.554 2.46.73a.521.521 0 0 1 .29.44l-.29.58c-.29.58.14.29.14.29a15.448 15.448 0 0 1 5.64-1c5.49 0 9.11 2.32 9.11 8v12.77s0 .44.14.44zM32.69 93.51v11.75c0 2 .72 3.77 3 3.77 2.89 0 4.19-1.74 4.19-7.11 0-8.56-4.34-9-5.78-9l-1.16.15a.54.54 0 0 0-.29.44zm.14-3.48c2.17-1.31 3.76-2.18 5.93-2.18 5.64 0 10.12 4.64 10.12 11.46s-4.19 13.35-11.42 13.35c-1.59.078-3.177-.22-4.63-.87a.136.136 0 0 0-.056.012.13.13 0 0 0-.047.032.144.144 0 0 0-.037.106v4.21a.283.283 0 0 0 .082.208.283.283 0 0 0 .208.082h2.6a.281.281 0 0 1 .29.29v2.32c0 .15-.29.29-.29.29H22.42s-.43 0-.43-.29v-2.32a.283.283 0 0 1 .082-.208.283.283 0 0 1 .208-.082h1.16a.281.281 0 0 0 .29-.29V93.37c0-.29-.29-.15-.29-.15l-1.16.29a.28.28 0 0 1-.29-.29v-2.31a.28.28 0 0 1 .29-.29L32.4 88s.29-.14.29.15v1.74c0 .29.14.15.14.15z" fill="#fff" fill-rule="evenodd"/><path d="M1 19.81V0h252v15.9a26.502 26.502 0 0 1-3.83-.09 22.609 22.609 0 0 0-3.39-.23h-5.69a4.47 4.47 0 0 1-1.29-.1 6.76 6.76 0 0 0-2.09-.21h-6.51a4.081 4.081 0 0 0-1.13 0c-1.43.316-2.899.42-4.36.31h-12.36a9.47 9.47 0 0 0-2.42.2 3.37 3.37 0 0 1-1.61 0 10.256 10.256 0 0 0-2.42-.21h-4.88a4.327 4.327 0 0 1-1.29-.1 15.6 15.6 0 0 0-5.14-.51 9.785 9.785 0 0 0-2.41.27 22.61 22.61 0 0 1-6.1.7 14.229 14.229 0 0 0-4.36.25 3.594 3.594 0 0 1-1 0h-8.3a3.9 3.9 0 0 1-1.13-.05 10.801 10.801 0 0 0-3.06-.25 7.573 7.573 0 0 1-1.62-.06 19.742 19.742 0 0 0-4.37-.25h-3.42a4.342 4.342 0 0 1-1.13-.1 13.681 13.681 0 0 0-4.36-.19 7.115 7.115 0 0 0-2.5.59 8.06 8.06 0 0 1-3.79.7h-1.63c-1.85-.16-3.65.43-5.5.36-.321.035-.634.13-.92.28a8.5 8.5 0 0 1-3.47.69 3.167 3.167 0 0 0-1.13.07 7.489 7.489 0 0 1-2.42.22h-18.22c-.701.008-1.401.079-2.09.21a11.22 11.22 0 0 1-4 0 12.92 12.92 0 0 0-2.41-.23h-21.8c-.43 0-.93-.13-1.26.19a2.29 2.29 0 0 1-1.82.46H73a3 3 0 0 0-1.58.25 4 4 0 0 1-2 .41c-.65 0-1.3.06-1.94.12-1.5.15-3 .35-4.5.49-2 .18-3.87-.39-5.83-.32a.76.76 0 0 1-.32-.06 5.178 5.178 0 0 0-2.09-.22h-3.58a4.88 4.88 0 0 0-1.28.13 4.85 4.85 0 0 1-1.61.17 10.35 10.35 0 0 0-3.5.56 10.34 10.34 0 0 1-5 .2 14.887 14.887 0 0 0-2.72-.39c-2 0-4.11-.26-6.15.25a7.916 7.916 0 0 1-1.62 0 6.55 6.55 0 0 0-1.45.1 7.41 7.41 0 0 1-1.93.19H15.65a6.09 6.09 0 0 1-2.39-.36 4.51 4.51 0 0 0-1.59-.28C8.16 20 4.5 20.3 1 19.81z" fill="#510c76"/><path d="M1 19.81c3.5.49 7.16.18 10.67.31a4.512 4.512 0 0 1 1.59.28 6.09 6.09 0 0 0 2.39.36H25.9a7.41 7.41 0 0 0 1.93-.19c.478-.087.965-.12 1.45-.1a7.916 7.916 0 0 0 1.62 0c2-.51 4.1-.24 6.15-.25.917.046 1.827.176 2.72.39a10.34 10.34 0 0 0 5-.2 10.353 10.353 0 0 1 3.5-.56 4.847 4.847 0 0 0 1.61-.17c.42-.1.85-.144 1.28-.13h3.58a5.18 5.18 0 0 1 2.09.22c.101.043.21.063.32.06 2-.07 3.87.5 5.83.32 1.5-.14 3-.34 4.5-.49.64-.07 1.29-.11 1.94-.12.69.038 1.38-.103 2-.41a3 3 0 0 1 1.58-.25h7.32a2.29 2.29 0 0 0 1.82-.46c.33-.32.83-.19 1.26-.19h21.8c.809.001 1.616.078 2.41.23 1.323.24 2.677.24 4 0a11.895 11.895 0 0 1 2.09-.21h18.22a7.489 7.489 0 0 0 2.42-.22c.369-.091.752-.115 1.13-.07a8.499 8.499 0 0 0 3.47-.69c.287-.15.599-.245.92-.28 1.85.06 3.64-.52 5.5-.36h1.63a8.06 8.06 0 0 0 3.79-.7 7.115 7.115 0 0 1 2.5-.59 13.681 13.681 0 0 1 4.36.19c.371.082.751.116 1.13.1h3.42a19.748 19.748 0 0 1 4.37.25 7.56 7.56 0 0 0 1.62.06 10.801 10.801 0 0 1 3.06.25c.372.071.753.088 1.13.05h8.3c.332.046.668.046 1 0a14.229 14.229 0 0 1 4.36-.25c2.056.045 4.108-.19 6.1-.7a9.785 9.785 0 0 1 2.41-.27 15.6 15.6 0 0 1 5.14.51c.423.098.857.131 1.29.1h4.88c.812-.026 1.624.044 2.42.21a3.37 3.37 0 0 0 1.61 0 9.475 9.475 0 0 1 2.42-.2h12.36c1.461.11 2.93.005 4.36-.31a4.081 4.081 0 0 1 1.13 0h6.51a6.763 6.763 0 0 1 2.09.21c.423.096.857.13 1.29.1h5.69a22.609 22.609 0 0 1 3.39.23c1.273.122 2.553.152 3.83.09v13.66a45.841 45.841 0 0 1-5.43-.26c-1.69-.26-3.43-.12-5.16-.33-2-.25-4.09-.06-6.14-.33a21.996 21.996 0 0 0-4.84-.41 2.207 2.207 0 0 1-.64-.11 12.189 12.189 0 0 0-4.2-.07c-.962.125-1.93.192-2.9.2h-4.39a26.55 26.55 0 0 0-4.06.08 44.258 44.258 0 0 1-5.83.26 3.762 3.762 0 0 0-1.13.08 6.909 6.909 0 0 1-2.41.23h-11.16a12.374 12.374 0 0 1-2.25-.19 6.859 6.859 0 0 0-2.58 0 17.327 17.327 0 0 1-3.55.25h-14a4.06 4.06 0 0 0-1.76.17 13.069 13.069 0 0 1-4.43.78c-1.83.17-3.68-.18-5.5.28a2.199 2.199 0 0 1-.95-.13 1.41 1.41 0 0 0-.8 0c-.92-.53-1.84-1.06-2.78-1.57-.42-.23-.9-.35-1.31-.6-1.15-.69-2-.24-2.82.61-.59.61-1.22 1.19-1.83 1.78a50.007 50.007 0 0 0-7.28-.38c-1.89.1-3.79-.2-5.66.26a2.221 2.221 0 0 1-.95-.14 16.292 16.292 0 0 0-4.5-.45h-1.46a6.89 6.89 0 0 0-2.87.42 3.402 3.402 0 0 1-1.11.21c-3.09.21-6.15-.33-9.24-.34a.91.91 0 0 1-.32-.06 5.608 5.608 0 0 0-2.09-.21H97.7a15.9 15.9 0 0 1-1.93-.18 36.513 36.513 0 0 0-4.83-.49H73.86c-.81-.01-1.62.077-2.41.26-1.095.31-2.232.448-3.37.41a6.066 6.066 0 0 0-1.6.19 13.918 13.918 0 0 1-3.69.45 2.86 2.86 0 0 0-1.12.1 5.618 5.618 0 0 1-1.93.21h-12a12.515 12.515 0 0 0-2.6.07 21.616 21.616 0 0 1-4 .24h-3.25a3.54 3.54 0 0 0-1.44.16c-.465.149-.954.203-1.44.16-.648-.047-1.3.01-1.93.17a1 1 0 0 1-.64 0 9.232 9.232 0 0 0-3.07-.21H17.66a13.777 13.777 0 0 0-2.25-.13c-.967.097-1.938.144-2.91.14-.43-.003-.86.044-1.28.14a6.059 6.059 0 0 1-1.77.18 26.91 26.91 0 0 0-3.9.09 32.342 32.342 0 0 1-4.48.24z" fill="#003da7"/><path d="M1 31.83a32.342 32.342 0 0 0 4.48-.24c1.296-.125 2.6-.155 3.9-.09a6.062 6.062 0 0 0 1.77-.18c.42-.097.85-.144 1.28-.14.972.004 1.943-.043 2.91-.14.752-.018 1.505.025 2.25.13H29.3a9.23 9.23 0 0 1 3.07.21 1 1 0 0 0 .64 0 6.078 6.078 0 0 1 1.93-.17 3.65 3.65 0 0 0 1.44-.16 3.54 3.54 0 0 1 1.44-.16h3.25a21.625 21.625 0 0 0 4-.24 12.509 12.509 0 0 1 2.6-.07h12a5.623 5.623 0 0 0 1.93-.21 2.857 2.857 0 0 1 1.12-.1 13.922 13.922 0 0 0 3.69-.45 6.057 6.057 0 0 1 1.6-.19c1.138.038 2.275-.1 3.37-.41.79-.183 1.6-.27 2.41-.26h17.08c1.62.056 3.233.22 4.83.49.64.099 1.284.16 1.93.18h16.92a5.608 5.608 0 0 1 2.09.21c.102.039.211.06.32.06 3.08 0 6.15.55 9.24.34a3.405 3.405 0 0 0 1.11-.21 6.887 6.887 0 0 1 2.87-.42h1.46c1.514-.06 3.028.091 4.5.45.303.115.627.163.95.14 1.88-.46 3.78-.16 5.66-.26 2.433-.05 4.866.076 7.28.38l-5.82 6c-1 1.09-2.07 2.19-3.09 3.3-.191.26-.451.46-.75.58a2.58 2.58 0 0 0-1.75-.13 13.133 13.133 0 0 1-3.23.24 21.314 21.314 0 0 0-3.41.08 28.544 28.544 0 0 1-4.53.26c-.81-.05-1.624-.027-2.43.07-1.066.19-2.148.267-3.23.23h-6a2.92 2.92 0 0 0-2 .46c-.41.32-.94.21-1.42.21h-7.81a5.154 5.154 0 0 1-1.29-.1 3.669 3.669 0 0 0-1.43 0 23.178 23.178 0 0 1-5.19 0 45.196 45.196 0 0 0-6.12-.58 2.002 2.002 0 0 1-.65 0 12.069 12.069 0 0 0-3.55-.27c-1.3.066-2.604.04-3.9-.08a24.676 24.676 0 0 0-3.88-.22h-7.16a4.996 4.996 0 0 0-1.14 0 22.52 22.52 0 0 1-5.5.28c-1.458.02-2.911.177-4.34.47-1.91.35-3.85.48-5.75.87l-.95.21a1.12 1.12 0 0 1-.79-.06 9.149 9.149 0 0 0-4.41-.84c-.58-.112-1.17-.172-1.76-.18a36.658 36.658 0 0 1-5.35.2 7.41 7.41 0 0 0-1.62.06 18.256 18.256 0 0 1-3.87.27c-1.21.07-2.36-.31-3.55-.31h-7.81a4.237 4.237 0 0 0-1.29.09 6.892 6.892 0 0 1-2.25.22 23.929 23.929 0 0 1-5-.29c-2.7.11-5.42-.26-8.1.27-.216.02-.434.02-.65 0A27.707 27.707 0 0 0 1 42z" fill="#510c76"/><path d="M253 44v24.33l-.64-.35c-.91-.49-1.81-1-2.69-1.51-4.21-2.56-8.52-5-12.6-7.73a10.8 10.8 0 0 0-1.57-.85 3 3 0 0 0-3.08.14 72.804 72.804 0 0 1-7.32 3.5 2.612 2.612 0 0 1-2.62-.11 12.891 12.891 0 0 1-3.62-3.22c-.2-.26-.35-.55-.57-.79-1.6-1.78-1.83-1.81-4.05-1-2.84 1.09-5.58 2.39-8.34 3.63a2.232 2.232 0 0 1-2.12 0c-1.56-.76-3.19-1.34-4.79-2a1.78 1.78 0 0 0-1.27-.08c-.31.1-.62.2-.92.32-2.82 1.12-5.63 2.25-8.36 3.57-.527.276-1.035.587-1.52.93a15.747 15.747 0 0 1-4.34 2.18.601.601 0 0 1-.8-.34c-.17-.4-.33-.8-.47-1.21-.53-1.59-1-3.19-1.59-4.78a23.5 23.5 0 0 0-1-2.24 61.13 61.13 0 0 0-3.79-7.18 13.32 13.32 0 0 0-1-1.45 3.649 3.649 0 0 0-3.8-1.23c-.686.182-1.355.423-2 .72-.75.31-1.51.59-2.28.84a.56.56 0 0 1-.76-.41c-.42-1.89-1.19-3.71-1.15-5.69 1.18.14 2.36.22 3.52.45a4.72 4.72 0 0 0 2.08 0 3.55 3.55 0 0 1 1.76 0c1.583.36 3.208.508 4.83.44h2.76a6.809 6.809 0 0 0 2.24-.28 9.122 9.122 0 0 1 3-.35c3.51.06 7 0 10.54.24 3.83.23 7.69.09 11.54.11a10.642 10.642 0 0 1 4.57.93 7.67 7.67 0 0 0 4.76.48 6.67 6.67 0 0 1 3.51-.16 3.64 3.64 0 0 0 1 0 33.994 33.994 0 0 1 4 .22 6.434 6.434 0 0 0 2.1 0 15.907 15.907 0 0 1 2.43-.16 5.488 5.488 0 0 0 2.84-.53c.242-.12.509-.182.78-.18a12.068 12.068 0 0 1 3.71-.06c.424.1.866.1 1.29 0a14.558 14.558 0 0 1 2.58-.24 3.996 3.996 0 0 0 1.73-.35 2.62 2.62 0 0 1 1.74-.15c1.59.29 3.19.59 4.79.8s3.37.48 4.96.8zM90 48.33a23.32 23.32 0 0 0-8.35 7.81 75.214 75.214 0 0 0-4.05 7 4.69 4.69 0 0 1-1.24 1.68.67.67 0 0 1-.89 0c-.34-.27-.7-.51-1-.8a542.704 542.704 0 0 1-4.16-3.64 157.596 157.596 0 0 1-3.12-2.84c-.47-.44-.92-.91-1.36-1.39a3.31 3.31 0 0 0-5-.12 77.55 77.55 0 0 0-7.6 9.1c-.49.65-1 1.31-1.5 1.92a1.62 1.62 0 0 1-1.91.48 16.528 16.528 0 0 1-3.23-1.52 27.254 27.254 0 0 0-3.78-1.89 82.652 82.652 0 0 1-8.94-4.29 10.41 10.41 0 0 1-2.5-2 52.115 52.115 0 0 1-5-6.39 3.57 3.57 0 0 0-2.28-1.71 2.59 2.59 0 0 0-2.54.71c-.68.7-1.43 1.34-2.09 2.05-1.21 1.32-2.42 2.64-3.55 4-1.26 1.56-2.42 3.19-3.63 4.8-.1.13-.18.27-.27.41a10.23 10.23 0 0 1-5 4c-1.7.56-3.35 1.24-5 1.85l-.88.31V46.28a4.508 4.508 0 0 0 1-.12 10.501 10.501 0 0 1 4.47-.6h3.09c2.49-.05 5 0 7.46-.16a81.734 81.734 0 0 1 9.91-.08c1.244.1 2.495.06 3.73-.12a34.122 34.122 0 0 1 4.53-.29 5.5 5.5 0 0 1 3.26.78 3.33 3.33 0 0 0 2.16.56 4.91 4.91 0 0 1 1.92.27 11.49 11.49 0 0 0 3.69.43c1.62-.06 3.25-.07 4.87-.07.864.008 1.725.102 2.57.28.88.288 1.81.386 2.73.29a12.195 12.195 0 0 1 3.07-.2 41.383 41.383 0 0 0 6.14-.42c.918-.037 1.831-.15 2.73-.34a3.43 3.43 0 0 1 3.31.8 4.33 4.33 0 0 0 2.84 1h6.67c.335.005.67-.022 1-.08a30.472 30.472 0 0 1 6.8-.23c.338.005.664.129.92.35z" fill="#003da7"/><path d="M158.86 30c.261-.076.539-.076.8 0 .303.113.628.158.95.13 1.82-.46 3.67-.11 5.5-.28a13.07 13.07 0 0 0 4.43-.78 4.059 4.059 0 0 1 1.76-.17h14a17.334 17.334 0 0 0 3.55-.25 6.859 6.859 0 0 1 2.58 0c.743.133 1.496.196 2.25.19h11.22a6.914 6.914 0 0 0 2.41-.23c.37-.083.751-.11 1.13-.08a44.283 44.283 0 0 0 5.83-.26 26.524 26.524 0 0 1 4.06-.08h4.39c.97-.007 1.938-.074 2.9-.2a12.19 12.19 0 0 1 4.2.07c.207.069.422.106.64.11a21.996 21.996 0 0 1 4.84.41c2.05.27 4.12.08 6.14.33 1.73.21 3.47.08 5.16.33 1.803.195 3.616.281 5.43.26v9.16c-.58-.15-1.26-.26-1.83-.44a10.608 10.608 0 0 0-3.66-.58 16.002 16.002 0 0 1-3.41-.08 29.412 29.412 0 0 0-4.69-.24h-3.58a19.17 19.17 0 0 0-2.9.21 23.088 23.088 0 0 0-3 .63 5.23 5.23 0 0 1-1.45.13h-6.83a6.102 6.102 0 0 1-1.45-.12 7.315 7.315 0 0 0-1.77-.18h-4.23a5.522 5.522 0 0 0-1.3.07 11.583 11.583 0 0 1-4.82 0 34.11 34.11 0 0 0-9.85-.13 4.886 4.886 0 0 1-1 0 31.33 31.33 0 0 1-3.55-.3 24.798 24.798 0 0 1-4.17-.58 3.679 3.679 0 0 0-.8-.09h-4.72a1.492 1.492 0 0 0-1.58.87 3.236 3.236 0 0 1-2.79 1.68c-1.238.16-2.492.16-3.73 0a24.48 24.48 0 0 0-3.07-.23 4.125 4.125 0 0 1-1.13-.05 12.35 12.35 0 0 0-3.39-.29 6.002 6.002 0 0 1-1.3-.08 13 13 0 0 0-3.72-.22 1.327 1.327 0 0 1-.34-.87 20.86 20.86 0 0 0-2.51-6.23c-.41-.65-1.17-.87-1.6-1.54z" fill="#510c76"/><path d="M90 48.33a1.44 1.44 0 0 0-1-.41 30.466 30.466 0 0 0-6.8.23c-.33.058-.665.085-1 .08h-6.67a4.33 4.33 0 0 1-2.84-1 3.43 3.43 0 0 0-3.31-.8c-.899.19-1.812.303-2.73.34a41.383 41.383 0 0 1-6.14.42 12.19 12.19 0 0 0-3.07.2 6.58 6.58 0 0 1-2.73-.29 13.121 13.121 0 0 0-2.57-.28c-1.62 0-3.25 0-4.87.07a11.49 11.49 0 0 1-3.69-.43 4.91 4.91 0 0 0-1.92-.27 3.33 3.33 0 0 1-2.16-.56 5.501 5.501 0 0 0-3.26-.78 34.139 34.139 0 0 0-4.53.29c-1.235.18-2.486.22-3.73.12a81.755 81.755 0 0 0-9.91.08c-2.49.16-5 .11-7.46.16H6.52a10.5 10.5 0 0 0-4.47.6 4.503 4.503 0 0 1-1 .12V42a27.734 27.734 0 0 1 6.32-.44c.216.02.434.02.65 0 2.69-.53 5.4-.16 8.1-.27 1.652.271 3.328.368 5 .29a6.89 6.89 0 0 0 2.25-.22 4.24 4.24 0 0 1 1.29-.09h7.81c1.19 0 2.34.39 3.55.31a18.243 18.243 0 0 0 3.87-.27c.536-.08 1.08-.1 1.62-.06a36.644 36.644 0 0 0 5.35-.2c.59.008 1.18.068 1.76.18a9.15 9.15 0 0 1 4.41.84c.247.115.528.137.79.06l.95-.21c1.9-.38 3.84-.51 5.75-.87a23.125 23.125 0 0 1 4.34-.47c1.838.132 3.685.038 5.5-.28a5.007 5.007 0 0 1 1.14 0h7.16a24.688 24.688 0 0 1 3.88.22c1.296.12 2.6.146 3.9.08 1.19-.086 2.386.005 3.55.27.215.035.435.035.65 0 2.05.054 4.095.248 6.12.58 1.724.194 3.465.194 5.19 0a3.669 3.669 0 0 1 1.43 0 5.15 5.15 0 0 0 1.29.1h7.81c.48 0 1 .12 1.42-.21a2.92 2.92 0 0 1 2-.46h6c1.082.037 2.164-.04 3.23-.23.806-.097 1.62-.12 2.43-.07a28.54 28.54 0 0 0 4.53-.26 21.338 21.338 0 0 1 3.41-.08 13.133 13.133 0 0 0 3.23-.24 2.58 2.58 0 0 1 1.75.13 9.175 9.175 0 0 1-.63.9 8.365 8.365 0 0 0-1.7 2.83 2.464 2.464 0 0 1-.34.52c-2.14-.78-4.31-.32-6.42 0-1.485.274-2.99.424-4.5.45-1.41 0-2.82.09-4.23.06a6.108 6.108 0 0 0-2.53.47 7.458 7.458 0 0 1-3.17.55c-2.55-.07-5.09.12-7.63.25a3.261 3.261 0 0 0-1.72.41 6.59 6.59 0 0 1-4 1c-1.08 0-2.17-.05-3.25-.09a2.66 2.66 0 0 0-1.85.49 2.59 2.59 0 0 1-1.83.52 15.989 15.989 0 0 1-2.1-.16 3.35 3.35 0 0 0-2.36.13 3.82 3.82 0 0 0-2.22-.13z" fill="#fa4913"/><path d="M92.15 48.48a3.35 3.35 0 0 1 2.36-.13c.696.1 1.397.153 2.1.16a2.59 2.59 0 0 0 1.83-.52 2.66 2.66 0 0 1 1.85-.49c1.08 0 2.17.08 3.25.09a6.591 6.591 0 0 0 4-1 3.261 3.261 0 0 1 1.72-.41c2.54-.13 5.08-.32 7.63-.25a7.46 7.46 0 0 0 3.17-.55 6.108 6.108 0 0 1 2.53-.47c1.41 0 2.82-.07 4.23-.06a27.333 27.333 0 0 0 4.5-.45c2.11-.34 4.28-.79 6.42 0a12.48 12.48 0 0 1-2.19 3.21c-3.15 3.44-6.4 6.77-9.72 10-.347.34-.703.674-1.07 1-1.38 1.24-1.52 1.26-3.13.46-.82-.41-1.64-.84-2.47-1.23a8.74 8.74 0 0 0-1.35-.56 2.5 2.5 0 0 0-2.78.74c-1.25 1.34-2.68 2.52-4 3.79a1.249 1.249 0 0 1-1.61.21c-1.84-.93-3.69-1.82-5.53-2.73-1.07-.53-2.14-1-3.2-1.59a5.94 5.94 0 0 1-2.67-2.52 43.217 43.217 0 0 0-3.37-4.77 5.828 5.828 0 0 0-1.46-1.28c-.32-.13-.68-.41-1.04-.65z" fill="#003da7"/><path d="M163.3 38.7a13 13 0 0 1 3.72.22c.429.074.865.1 1.3.08a12.35 12.35 0 0 1 3.39.29c.373.068.753.085 1.13.05 1.027.012 2.053.089 3.07.23 1.238.16 2.492.16 3.73 0a3.23 3.23 0 0 0 2.79-1.68A1.487 1.487 0 0 1 184 37h4.72c.269 0 .537.03.8.09 1.371.311 2.766.505 4.17.58a31.33 31.33 0 0 0 3.55.3c.332.034.668.034 1 0 3.272-.434 6.59-.39 9.85.13 1.589.338 3.231.338 4.82 0a5.527 5.527 0 0 1 1.3-.07h4.23a7.325 7.325 0 0 1 1.77.18c.477.098.964.138 1.45.12h6.83a5.23 5.23 0 0 0 1.45-.13 23.088 23.088 0 0 1 3-.63c.96-.144 1.929-.214 2.9-.21h3.58a29.412 29.412 0 0 1 4.69.24c1.131.148 2.274.175 3.41.08a10.61 10.61 0 0 1 3.66.58c.56.18 1.25.3 1.83.44V44c-1.59-.33-3.3-.52-4.91-.72s-3.2-.51-4.79-.8a2.62 2.62 0 0 0-1.74.15 3.998 3.998 0 0 1-1.73.35c-.865.003-1.729.083-2.58.24-.424.1-.866.1-1.29 0a12.065 12.065 0 0 0-3.71.06 1.709 1.709 0 0 0-.78.18 5.488 5.488 0 0 1-2.84.53 15.92 15.92 0 0 0-2.43.16 6.429 6.429 0 0 1-2.1 0 34.025 34.025 0 0 0-4-.22 3.64 3.64 0 0 1-1 0 6.671 6.671 0 0 0-3.51.16 7.67 7.67 0 0 1-4.76-.48 10.643 10.643 0 0 0-4.57-.93c-3.85 0-7.7.12-11.54-.11-3.52-.21-7-.18-10.54-.24a9.125 9.125 0 0 0-3 .35 6.809 6.809 0 0 1-2.24.28h-2.76a18.308 18.308 0 0 1-4.83-.44 3.55 3.55 0 0 0-1.76 0 4.72 4.72 0 0 1-2.08 0c-1.16-.22-2.35-.3-3.52-.45a8 8 0 0 1-.7-3.37z" fill="#fa4913"/><path d="M253 70.539l-1.23-.7c-2-1.18-4.05-2.31-6-3.53-3.32-2-6.73-3.95-9.93-6.2a2.551 2.551 0 0 0-3-.16 72.092 72.092 0 0 1-7.66 3.56 2.904 2.904 0 0 1-2.35.05 10.82 10.82 0 0 1-4.14-2.79c-.73-.8-1.42-1.64-2.12-2.47a.91.91 0 0 0-1.15-.32c-.3.12-.61.23-.91.36l-7.51 3.29c-.45.2-.93.32-1.35.56a1.76 1.76 0 0 1-1.82 0c-1.56-.76-3.19-1.36-4.76-2.09a2.099 2.099 0 0 0-1.86 0c-2 .87-4 1.7-6 2.53-1.04.444-2.043.969-3 1.57-1.15.71-2.34 1.37-3.53 2a6.792 6.792 0 0 1-2.79.82c-1.07.08-1.34-.11-1.71-1.09-.11-.3-.19-.62-.3-.93a79.001 79.001 0 0 0-3.35-9c-.57-1.17-1.13-2.34-1.78-3.47a29.8 29.8 0 0 0-2.18-3.43 1.894 1.894 0 0 0-1.84-.76 4.75 4.75 0 0 0-1.84.61c-1.2.638-2.516 1.03-3.87 1.15-1.26.12-1.26.15-1.61-1 0-.16-.08-.32-.11-.48-.52-2.44-1.09-4.86-1.56-7.31a34.42 34.42 0 0 0-1.32-5.53c-.56-1.53-1.11-3.07-2.53-4.08a22.265 22.265 0 0 0-3.52-2 1 1 0 0 0-1.29.25c-3.93 3.82-7.68 7.8-11.38 11.84-.677.72-1.249 1.53-1.7 2.41a21.941 21.941 0 0 1-4.11 5.82c-1.92 1.91-3.71 3.95-5.61 5.89-1.4 1.43-2.86 2.81-4.33 4.18-.571.499-1.18.954-1.82 1.36a1.71 1.71 0 0 1-2 0c-.93-.55-1.91-1-2.89-1.5-.63-.31-1.29-.56-1.95-.82a.74.74 0 0 0-.76.11 3.617 3.617 0 0 0-.36.33c-1.59 1.63-3.49 2.93-5 4.7-.37.45-.54.44-1.14.19l-.59-.27c-3.113-1.533-6.223-3.07-9.33-4.61a8.29 8.29 0 0 1-3.78-3.45 32.263 32.263 0 0 0-3.21-4.49 5.892 5.892 0 0 0-1.06-1 1.67 1.67 0 0 0-2.48-.07 26.002 26.002 0 0 0-5.86 5.6c-.365.46-.7.945-1 1.45-.88 1.49-1.73 3-2.59 4.51-.56 1-1.1 2-1.66 3a4.34 4.34 0 0 1-1.3 1.43 2.06 2.06 0 0 1-2.81-.06c-.48-.36-.94-.74-1.39-1.13-1.1-1-2.19-1.94-3.29-2.91a50.999 50.999 0 0 1-5.19-4.9 1.689 1.689 0 0 0-2.58-.12 6.552 6.552 0 0 0-.69.69c-1 1.14-2 2.26-3 3.45-1.72 2.17-3.37 4.39-5.06 6.57a3.41 3.41 0 0 1-3.6 1.33 10.76 10.76 0 0 1-3.42-1.47 36.823 36.823 0 0 0-4.21-2.12c-2.84-1.23-5.67-2.47-8.38-3.95a13.218 13.218 0 0 1-2.91-2.05 40.999 40.999 0 0 1-3.94-4.54c-.83-1.07-1.58-2.2-2.44-3.25-.61-.74-1.09-.77-1.79-.11-.91.85-1.8 1.73-2.62 2.66a46.157 46.157 0 0 0-3.59 4.2c-.71 1-1.43 2-2.19 3a35.663 35.663 0 0 1-2.81 3.37A6.7 6.7 0 0 1 9 66.789c-2.06.83-4.12 1.67-6.21 2.42l-1.85.66v-2l.88-.32c1.68-.61 3.34-1.29 5-1.85a10.23 10.23 0 0 0 5-4c.1-.13.17-.28.27-.41 1.2-1.6 2.37-3.24 3.63-4.8 1.12-1.39 2.34-2.71 3.55-4 .66-.72 1.41-1.35 2.09-2.05a2.59 2.59 0 0 1 2.54-.71 3.57 3.57 0 0 1 2.28 1.71 52.115 52.115 0 0 0 5 6.39 10.41 10.41 0 0 0 2.5 2 82.652 82.652 0 0 0 8.94 4.29 27.254 27.254 0 0 1 3.78 1.89 16.528 16.528 0 0 0 3.23 1.52 1.62 1.62 0 0 0 1.91-.48c.53-.61 1-1.27 1.5-1.92a77.56 77.56 0 0 1 7.6-9.1 3.308 3.308 0 0 1 5 .12c.44.48.89.95 1.36 1.39 1.033.96 2.073 1.907 3.12 2.84 1.38 1.227 2.767 2.44 4.16 3.64.33.28.68.53 1 .8a.67.67 0 0 0 .89 0 4.69 4.69 0 0 0 1.24-1.68 75.201 75.201 0 0 1 4.05-7 23.54 23.54 0 0 1 8-7.64c.423-.152.87-.223 1.32-.21.192 0 .383.02.57.06h.14c.299.075.585.193.85.35l.7.47a5.83 5.83 0 0 1 1.46 1.28 43.218 43.218 0 0 1 3.37 4.77 5.94 5.94 0 0 0 2.67 2.52c1.06.55 2.13 1.07 3.2 1.59 1.84.91 3.7 1.81 5.53 2.73a1.25 1.25 0 0 0 1.61-.21c1.33-1.27 2.75-2.45 4-3.79a2.5 2.5 0 0 1 2.78-.74 8.74 8.74 0 0 1 1.35.56c.83.4 1.65.82 2.47 1.23 1.61.8 1.75.78 3.13-.46.36-.327.717-.66 1.07-1 3.32-3.27 6.57-6.6 9.72-10a12.482 12.482 0 0 0 2.19-3.21c.134-.155.249-.326.34-.51a8.364 8.364 0 0 1 1.7-2.83c.228-.287.438-.588.63-.9.299-.12.559-.32.75-.58 1-1.11 2-2.21 3.09-3.3 1.933-2 3.873-4 5.82-6 .61-.59 1.24-1.17 1.83-1.78.81-.84 1.68-1.3 2.82-.61.41.25.89.37 1.31.6.93.51 1.85 1 2.78 1.57.43.62 1.19.84 1.59 1.54a20.862 20.862 0 0 1 2.51 6.23c.004.322.125.63.34.87a7.995 7.995 0 0 0 .6 3.34c0 2 .73 3.8 1.15 5.69a.56.56 0 0 0 .76.41c.77-.25 1.53-.53 2.28-.84a12.265 12.265 0 0 1 2-.72 3.65 3.65 0 0 1 3.8 1.23c.365.46.699.945 1 1.45a60.987 60.987 0 0 1 3.79 7.18 23.5 23.5 0 0 1 1 2.24c.56 1.58 1.06 3.19 1.59 4.78.14.41.3.81.47 1.21a.61.61 0 0 0 .327.342.6.6 0 0 0 .473-.002 15.758 15.758 0 0 0 4.34-2.18c.485-.343.993-.654 1.52-.93 2.73-1.32 5.55-2.45 8.36-3.57.3-.12.61-.23.92-.32a1.78 1.78 0 0 1 1.27.08c1.6.67 3.23 1.26 4.79 2a2.232 2.232 0 0 0 2.12 0c2.76-1.25 5.51-2.55 8.34-3.63 2.23-.85 2.46-.82 4.05 1 .22.24.37.54.57.79a12.891 12.891 0 0 0 3.62 3.22 2.609 2.609 0 0 0 2.62.11 72.825 72.825 0 0 0 7.32-3.5 3 3 0 0 1 3.08-.14c.546.24 1.071.524 1.57.85 4.08 2.77 8.39 5.17 12.6 7.73.88.53 1.79 1 2.69 1.51l.64.35z" fill="#fff"/></svg>