<?xml version="1.0" encoding="UTF-8"?>
<svg width="536.78pt" version="1.1" xmlns="http://www.w3.org/2000/svg" height="535.47pt" viewBox="0 0 536.78 535.47" xmlns:xlink="http://www.w3.org/1999/xlink">
 <defs>
  <clipPath id="Clip0">
   <path d="M0 0 L0 535.473 L536.776 535.473 L536.776 0 L0 0 Z" transform="translate(0, 0.000977)"/>
  </clipPath>
 </defs>
 <g id="Background">
  <g id="Group1" clip-path="url(#Clip0)">
   <path style="fill:#ffffff; fill-rule:nonzero;stroke:none;" d="M268.351 535.474 C295.527 499.442 333.24 492.061 380.03 487.617 C435.387 482.36 460.094 476.722 491.737 441.508 C511.601 419.452 525.43 383.597 525.43 351.107 C525.43 328.421 524.256 309.716 513.014 277.214 C488.956 207.591 481.399 181.468 536.688 117.613 L421.393 2.38476 C396.601 23.0468 342.811 59.1211 268.351 0 C193.289 59.7002 141.236 22.498 115.259 2.38476 L0 117.613 C54.9824 181.468 49.873 207.755 23.6563 277.214 C11.8477 308.529 11.2344 329.244 11.2344 351.107 C11.2344 383.613 23.9453 419.339 44.9336 441.508 C77.6221 476.036 102.283 482.326 156.635 487.617 C205.098 492.335 241.158 500.021 268.351 535.474 Z" transform="translate(0, 0)"/>
   <path style="fill:#161413; fill-rule:nonzero;stroke:none;" d="M255.941 510.615 C283.714 479.311 325.791 472.311 368.165 468.059 C421.394 462.734 442.165 457.216 471.653 425.509 C490.784 404.936 503.54 372.924 503.54 340.434 C503.54 318.605 500.065 292.065 489.972 264.77 C462.461 190.284 468.632 159.574 511.846 107.555 L407.808 3.5176 C407.808 3.5176 341.023 65.5645 255.941 0 C171.404 65.5645 104.029 3.5176 104.029 3.5176 L0 107.555 C44.2607 159.574 50.5849 190.858 21.9043 264.77 C11.2461 292.133 8.2802 318.605 8.2802 340.434 C8.2802 372.31 20.8515 405.822 40.2158 425.509 C70.7324 456.597 90.5998 462.161 143.626 468.059 C186.207 472.805 228.177 479.311 255.941 510.615 Z" transform="translate(12.4102, 10.6728)"/>
   <path style="fill:#ffffff; fill-rule:nonzero;stroke:none;" d="M239.966 463.367 C283.123 435.583 304.957 436.163 349.272 429.685 C387.728 424.013 412.889 420.993 440.888 393.056 C480.503 353.414 476.671 297.165 452.742 233.486 C424.924 159.588 449.495 116.431 472.799 86.882 L390.062 4.1357 C390.062 4.1357 325.048 55.5391 239.966 0 C154.853 55.5391 89.8112 4.1357 89.8112 4.1357 L7.0166 86.882 C30.1338 116.431 55.5644 158.995 27.1904 233.486 C2.8252 297.393 0 353.414 39.0048 393.056 C66.7656 421.198 91.7012 424.116 130.601 429.685 C176.128 436.163 196.815 435.583 239.966 463.367 Z" transform="translate(28.3848, 32.5156)"/>
   <path style="fill:#e20010; fill-rule:nonzero;stroke:none;" d="M221.101 275.388 C267.835 249.466 296.294 252.106 348.716 244.084 C438.35 230.3 432.867 155.329 427.195 126.2 C425.799 119.013 423.193 107.739 421.081 101.613 C413.831 80.557 397.431 40.264 400.133 0 L42.0361 0 C45.3994 42.064 27.4287 84.934 20.4229 104.917 C18.876 109.379 16.8545 117.458 15.79 122.283 C10.1846 147.779 0 229.171 93.413 244.084 C149.377 253.02 174.328 249.466 221.101 275.388 Z" transform="translate(47.25, 193.898)"/>
   <path style="fill:#161413; fill-rule:nonzero;stroke:none;" d="M0 0 L14.201 0 L14.201 30.1574 L28.888 30.1574 L28.888 0 L43.81 0 L43.81 76.2404 L28.888 76.2404 L28.888 43.6234 L14.201 43.6234 L14.201 76.2404 L0 76.2404 L0 0 Z" transform="translate(148.344, 92.9902)"/>
   <path style="fill:#161413; fill-rule:nonzero;stroke:none;" d="M0 0 L15.412 0 L15.412 76.2886 L0 76.2886 L0 0 Z" transform="translate(207.613, 92.956)"/>
   <path style="fill:#161413; fill-rule:nonzero;stroke:none;" d="M23.497 0 C45.264 0 46.875 13.7724 46.575 24.5344 L31.445 24.5344 C31.382 7.7178 14.902 10.2704 15.044 20.7134 C15.101 26.4954 25.7 32.5984 34.482 37.9884 C42.35 42.8564 47.784 50.6764 48.005 59.2314 C48.147 66.7344 44.757 80.8214 23.497 80.8214 C1.816 80.8214 0.045 64.6934 0 55.5424 L14.499 55.5424 C14.499 74.2394 32.052 71.9884 32.216 59.7794 C32.216 59.7794 33.273 54.0774 23.599 48.2694 C12.711 41.7774 0.414 36.8964 0.732 21.0144 C0.732 16.6404 1.664 0 23.497 0 Z" transform="translate(398.299, 90.2822)"/>
   <path style="fill:#161413; fill-rule:nonzero;stroke:none;" d="M0 0 L15.374 0 L15.374 64.2934 L32.047 64.2934 L32.047 76.2544 L0 76.2544 L0 0 Z" transform="translate(278.183, 92.9902)"/>
   <path style="fill:#161413; fill-rule:nonzero;stroke:none;" d="M0 0 L15.374 0 L15.374 64.3263 L32.016 64.3263 L32.016 76.2603 L0 76.2603 L0 0 Z" transform="translate(238.464, 92.8203)"/>
   <path style="fill:#161413; fill-rule:evenodd;stroke:none;" d="M0 2.8447 L0 79.7552 L15.4283 79.7552 L15.4283 54.6702 C19.7113 54.5032 44.8833 57.1202 45.4713 30.0402 C46.2743 0 20.7443 2.8447 15.4283 2.8447 L0 2.8447 Z M15.4283 14.4172 L15.4283 41.9592 C17.7013 41.9592 31.3173 45.0652 31.2843 27.9012 C31.2303 12.6742 18.5443 14.4172 15.4283 14.4172 Z" transform="translate(94.9707, 89.8564)"/>
   <path style="fill:#161413; fill-rule:evenodd;stroke:none;" d="M0 2.8447 L0 79.7552 L15.419 79.7552 L15.419 54.6702 C19.688 54.5032 44.86 57.1202 45.479 30.0402 C46.245 0 20.732 2.8447 15.419 2.8447 L0 2.8447 Z M15.419 14.4172 L15.419 41.9592 C17.684 41.9592 31.274 45.0652 31.252 27.9012 C31.19 12.6742 18.541 14.4172 15.419 14.4172 Z" transform="translate(348.324, 89.8564)"/>
   <path style="fill:#161413; fill-rule:nonzero;stroke:none;" d="M0 0 L15.424 0 L15.424 76.2404 L0 76.2404 L0 0 Z" transform="translate(317.764, 92.9902)"/>
   <path style="fill:#ffffff; fill-rule:evenodd;stroke:none;" d="M277.25 73.376 C308.871 84.815 301.088 125.253 285.187 151.299 C265.401 183.812 222.103 187.746 196.539 177.907 C155.806 162.234 168.129 116.925 181.495 79.513 C200.694 25.731 237.942 0.293 286.685 16.589 C312.754 25.229 316.495 51.533 313.884 59.121 L271.63 56.015 C271.63 56.015 274.286 38.653 262.16 38.653 C243.567 38.653 231.549 78.31 231.549 78.31 C231.549 78.31 249.348 63.282 277.25 73.376 Z M218.446 118.185 C223.619 106.439 231.612 93.859 242.092 96.039 C256.228 98.979 251.368 117.804 246.407 131.174 C241.428 144.662 231.436 159.315 219.157 155.993 C207.757 152.968 212.497 131.679 218.446 118.185 Z M121.463 73.376 C153.076 84.815 145.29 125.253 129.448 151.299 C109.64 183.812 66.328 187.746 40.753 177.907 C0 162.234 12.282 116.868 25.711 79.513 C44.635 26.912 80.679 0 130.915 16.589 C157.018 25.133 160.717 51.533 158.094 59.121 L115.843 56.015 C115.843 56.015 118.52 38.653 106.393 38.653 C87.793 38.653 75.772 78.31 75.772 78.31 C75.772 78.31 93.56 63.282 121.463 73.376 Z M62.989 118.185 C68.21 106.439 75.789 93.859 86.302 96.039 C100.483 98.979 95.564 117.804 90.634 131.174 C85.633 144.662 75.661 159.315 63.393 155.993 C51.944 152.968 57.049 131.679 62.989 118.185 Z" transform="translate(101.906, 215.442)"/>
   <path style="fill:#161413; fill-rule:nonzero;stroke:none;" d="M13.75 16.049 L17.008 16.049 C19.774 16.049 22.3 15.907 22.3 12.734 C22.3 10.072 20 9.652 17.889 9.652 L13.75 9.652 L13.75 16.049 Z M10.616 7.124 L18.388 7.124 C23.174 7.124 25.428 9.015 25.428 12.87 C25.428 16.503 23.129 18.02 20.137 18.343 L25.888 27.216 L22.526 27.216 L17.06 18.575 L13.75 18.575 L13.75 27.216 L10.616 27.216 L10.616 7.124 Z M17.332 31.865 C25.291 31.865 31.445 25.519 31.445 17.105 C31.445 8.873 25.291 2.527 17.332 2.527 C9.282 2.527 3.128 8.873 3.128 17.105 C3.128 25.519 9.282 31.865 17.332 31.865 Z M17.332 0 C26.711 0 34.579 7.409 34.579 17.105 C34.579 26.989 26.711 34.392 17.332 34.392 C7.914 34.392 0 26.989 0 17.105 C0 7.409 7.914 0 17.332 0 Z" transform="translate(502.197, 461.733)"/>
  </g>
 </g>
</svg>
